<svg width="18" height="23" viewBox="0 0 18 23" fill="none" xmlns="http://www.w3.org/2000/svg">
<path d="M14.7966 12.3008C14.8074 11.4661 15.0291 10.6477 15.4411 9.92176C15.8532 9.19581 16.4421 8.58587 17.1532 8.1487C16.7015 7.50354 16.1055 6.9726 15.4127 6.59804C14.7199 6.22349 13.9493 6.01565 13.162 5.99102C11.4828 5.81476 9.85486 6.99585 8.99915 6.99585C8.12688 6.99585 6.80938 6.00852 5.39065 6.03771C4.47297 6.06735 3.57863 6.33421 2.79475 6.81227C2.01087 7.29033 1.3642 7.96328 0.917729 8.76558C-1.01627 12.114 0.426318 17.035 2.27893 19.7417C3.20583 21.067 4.28911 22.5475 5.70656 22.495C7.09362 22.4374 7.61166 21.6105 9.28596 21.6105C10.9447 21.6105 11.4307 22.495 12.877 22.4616C14.3653 22.4374 15.3031 21.1303 16.1975 19.7924C16.8634 18.8481 17.3759 17.8044 17.7159 16.6999C16.8512 16.3342 16.1133 15.722 15.5941 14.9397C15.075 14.1574 14.7977 13.2396 14.7966 12.3008Z" fill="white"/>
<path d="M12.0651 4.2109C12.8766 3.23669 13.2764 1.98451 13.1796 0.720276C11.9397 0.850496 10.7945 1.44306 9.97199 2.37989C9.56985 2.83755 9.26186 3.36999 9.06561 3.94676C8.86936 4.52353 8.78872 5.13332 8.82828 5.74128C9.44842 5.74766 10.0619 5.61325 10.6226 5.34816C11.1833 5.08307 11.6765 4.69422 12.0651 4.2109Z" fill="white"/>
</svg>
