<svg width="282" height="40" viewBox="0 0 282 40" fill="none" xmlns="http://www.w3.org/2000/svg">
<g clip-path="url(#clip0_1_9)">
<g clip-path="url(#clip1_1_9)">
<path d="M129.999 0H4.99998C2.23857 0 0 2.23857 0 4.99998V34.9998C0 37.7612 2.23857 39.9998 4.99998 39.9998H129.999C132.761 39.9998 134.999 37.7612 134.999 34.9998V4.99998C134.999 2.23857 132.761 0 129.999 0Z" fill="black"/>
<path d="M129.999 0.799979C131.113 0.801266 132.18 1.24421 132.968 2.03162C133.755 2.81904 134.198 3.88662 134.199 5.00016V35C134.198 36.1135 133.755 37.1811 132.968 37.9685C132.18 38.7559 131.113 39.1989 129.999 39.2002H4.99998C3.88643 39.1989 2.81887 38.756 2.03149 37.9686C1.24411 37.1811 0.801227 36.1136 0.799996 35V5.00016C0.801208 3.88661 1.24409 2.81901 2.03147 2.03159C2.81885 1.24417 3.88643 0.801244 4.99998 0.799979H129.999ZM129.999 0.000183105H4.99998C3.67509 0.00406118 2.40558 0.532088 1.46874 1.46893C0.531905 2.40576 0.00387808 3.67528 0 5.00016L0 35C0.00387808 36.3249 0.531905 37.5944 1.46874 38.5312C2.40558 39.4681 3.67509 39.9961 4.99998 40H129.999C131.324 39.9961 132.594 39.4681 133.531 38.5312C134.467 37.5944 134.995 36.3249 134.999 35V5.00016C134.995 3.67528 134.467 2.40576 133.531 1.46893C132.594 0.532088 131.324 0.00406118 129.999 0.000183105Z" fill="#1D1D1D"/>
<path d="M47.4181 10.2433C47.4363 10.6102 47.3796 10.977 47.2515 11.3213C47.1234 11.6657 46.9265 11.9803 46.6729 12.2461C46.3887 12.5409 46.0455 12.7723 45.6657 12.9253C45.2858 13.0783 44.878 13.1493 44.4688 13.1338C44.0571 13.1375 43.6487 13.0589 43.2678 12.9025C42.8868 12.7461 42.541 12.5151 42.2506 12.2232C41.9602 11.9312 41.7311 11.5841 41.5767 11.2024C41.4224 10.8206 41.3459 10.4118 41.3518 10.0001C41.3459 9.5883 41.4224 9.17952 41.5768 8.79774C41.7312 8.41596 41.9603 8.06888 42.2507 7.77689C42.541 7.4849 42.8869 7.25388 43.2678 7.09742C43.6487 6.94096 44.0571 6.8622 44.4688 6.86578C44.8922 6.8645 45.3114 6.9501 45.7003 7.11728C46.0616 7.26372 46.3832 7.49342 46.6388 7.78767L46.1114 8.31547C45.9105 8.07892 45.6578 7.89171 45.373 7.76828C45.0882 7.64485 44.7789 7.5885 44.4688 7.60357C44.1568 7.60196 43.8476 7.66335 43.5598 7.78406C43.272 7.90477 43.0115 8.08232 42.794 8.30608C42.5764 8.52984 42.4063 8.7952 42.2937 9.08628C42.1811 9.37735 42.1285 9.68815 42.1389 10.0001C42.1314 10.4673 42.2629 10.9261 42.5166 11.3185C42.7703 11.7109 43.1348 12.0191 43.5639 12.2041C43.993 12.389 44.4673 12.4424 44.9268 12.3574C45.3862 12.2724 45.8101 12.0529 46.1446 11.7267C46.4525 11.3949 46.631 10.9636 46.6475 10.5113H44.4688V9.79056H47.3761C47.4036 9.93991 47.4177 10.0914 47.4181 10.2433Z" fill="white" stroke="white" stroke-width="0.2" stroke-miterlimit="10"/>
<path d="M52.0275 7.73736H49.2951V9.63965H51.759V10.3604H49.2951V12.2627H52.0275V13H48.5246V7.00006H52.0275V7.73736Z" fill="white" stroke="white" stroke-width="0.2" stroke-miterlimit="10"/>
<path d="M55.2784 13H54.5069V7.73736H52.8312V7.00006H56.9542V7.73736H55.2784V13Z" fill="white" stroke="white" stroke-width="0.2" stroke-miterlimit="10"/>
<path d="M59.9376 13V7.00006H60.7081V13H59.9376Z" fill="white" stroke="white" stroke-width="0.2" stroke-miterlimit="10"/>
<path d="M64.128 13H63.3565V7.73736H61.6808V7.00006H65.8038V7.73736H64.128V13Z" fill="white" stroke="white" stroke-width="0.2" stroke-miterlimit="10"/>
<path d="M73.6089 12.2247C73.0249 12.8069 72.2339 13.1339 71.4092 13.1339C70.5846 13.1339 69.7935 12.8069 69.2095 12.2247C68.9206 11.932 68.6935 11.5843 68.5417 11.2021C68.3899 10.82 68.3164 10.4112 68.3257 10.0001C68.3164 9.58896 68.3899 9.18016 68.5417 8.798C68.6935 8.41584 68.9206 8.06811 69.2095 7.77548C69.4982 7.48675 69.841 7.25778 70.2182 7.10168C70.5955 6.94558 70.9998 6.86542 71.4081 6.86578C71.8164 6.86615 72.2206 6.94703 72.5975 7.10379C72.9745 7.26056 73.3169 7.49014 73.605 7.77938C73.8941 8.07123 74.1217 8.41819 74.2742 8.79966C74.4267 9.18112 74.501 9.58933 74.4927 10.0001C74.5018 10.4111 74.4282 10.8199 74.2764 11.202C74.1246 11.5841 73.8976 11.9319 73.6089 12.2247ZM69.7788 11.7223C70.2114 12.1541 70.7976 12.3966 71.4087 12.3966C72.0199 12.3966 72.6061 12.1541 73.0386 11.7223C73.2604 11.4952 73.4339 11.2255 73.5485 10.9295C73.6632 10.6335 73.7166 10.3173 73.7056 10.0001C73.7166 9.68283 73.6632 9.36666 73.5485 9.07065C73.4339 8.77465 73.2604 8.50496 73.0386 8.27788C72.6061 7.84608 72.0199 7.60357 71.4087 7.60357C70.7976 7.60357 70.2114 7.84608 69.7788 8.27788C69.5573 8.50514 69.3842 8.77488 69.2697 9.07086C69.1552 9.36684 69.1019 9.68292 69.1128 10.0001C69.1019 10.3172 69.1552 10.6333 69.2697 10.9293C69.3842 11.2253 69.5573 11.495 69.7788 11.7223Z" fill="white" stroke="white" stroke-width="0.2" stroke-miterlimit="10"/>
<path d="M75.5747 13V7.00006H76.5132L79.4292 11.6675H79.4624L79.4292 10.5112V7.00006H80.2007V13H79.396L76.3452 8.10645H76.312L76.3452 9.26275V13H75.5747Z" fill="white" stroke="white" stroke-width="0.2" stroke-miterlimit="10"/>
<path d="M68.1355 21.7516C67.295 21.7547 66.4742 22.0069 65.7769 22.4762C65.0796 22.9455 64.537 23.6108 64.2176 24.3883C63.8981 25.1657 63.8162 26.0204 63.9821 26.8443C64.1481 27.6683 64.5544 28.4246 65.1499 29.0178C65.7453 29.611 66.5032 30.0145 67.3278 30.1773C68.1524 30.3401 69.0067 30.2549 69.783 29.9325C70.5592 29.6101 71.2225 29.065 71.6891 28.3659C72.1557 27.6668 72.4048 26.8452 72.4047 26.0046C72.413 25.4425 72.3081 24.8844 72.0963 24.3636C71.8844 23.8428 71.57 23.3699 71.1717 22.9731C70.7734 22.5763 70.2993 22.2636 69.7777 22.0538C69.2561 21.8439 68.6976 21.7412 68.1355 21.7516ZM68.1355 28.5823C67.6179 28.6192 67.1011 28.4994 66.6525 28.2386C66.2039 27.9777 65.8443 27.5878 65.6204 27.1196C65.3965 26.6515 65.3187 26.1267 65.3972 25.6138C65.4757 25.1008 65.7069 24.6234 66.0605 24.2436C66.4142 23.8638 66.874 23.5993 67.38 23.4845C67.8861 23.3697 68.415 23.41 68.8979 23.6C69.3808 23.79 69.7953 24.121 70.0875 24.5499C70.3796 24.9788 70.5358 25.4857 70.5359 26.0046C70.5516 26.3325 70.5015 26.6601 70.3887 26.9684C70.2758 27.2766 70.1025 27.5591 69.8788 27.7993C69.6551 28.0395 69.3857 28.2325 69.0863 28.367C68.7869 28.5015 68.4636 28.5747 68.1355 28.5823ZM58.8221 21.7516C57.9816 21.7547 57.1609 22.0069 56.4636 22.4761C55.7662 22.9454 55.2236 23.6108 54.9041 24.3882C54.5847 25.1656 54.5027 26.0203 54.6687 26.8443C54.8346 27.6683 55.2409 28.4246 55.8364 29.0178C56.4318 29.611 57.1897 30.0145 58.0143 30.1773C58.8389 30.3401 59.6933 30.2549 60.4695 29.9326C61.2457 29.6102 61.909 29.065 62.3756 28.3659C62.8423 27.6668 63.0913 26.8452 63.0913 26.0046C63.0996 25.4425 62.9947 24.8844 62.7828 24.3636C62.571 23.8428 62.2566 23.3699 61.8583 22.9731C61.46 22.5763 60.9859 22.2637 60.4643 22.0538C59.9427 21.844 59.3842 21.7412 58.8221 21.7516ZM58.8221 28.5823C58.3045 28.6192 57.7878 28.4994 57.3392 28.2386C56.8906 27.9777 56.5309 27.5878 56.307 27.1196C56.0831 26.6515 56.0054 26.1267 56.0839 25.6138C56.1624 25.1008 56.3935 24.6234 56.7472 24.2436C57.1008 23.8638 57.5606 23.5993 58.0667 23.4845C58.5728 23.3697 59.1017 23.41 59.5846 23.6C60.0675 23.79 60.482 24.121 60.7741 24.5499C61.0662 24.9788 61.2225 25.4857 61.2225 26.0046C61.2382 26.3325 61.1882 26.6602 61.0754 26.9684C60.9625 27.2766 60.7892 27.5591 60.5655 27.7993C60.3418 28.0395 60.0723 28.2325 59.7729 28.367C59.4735 28.5015 59.1502 28.5747 58.8221 28.5823ZM47.7434 23.0566V24.8608H52.061C51.9987 25.7071 51.6524 26.5076 51.0783 27.1324C50.6456 27.5735 50.1252 27.9189 49.5508 28.1464C48.9764 28.374 48.3607 28.4785 47.7434 28.4534C46.4814 28.4363 45.2768 27.923 44.3904 27.0245C43.504 26.1261 43.0071 24.9147 43.0071 23.6526C43.0071 22.3904 43.504 21.179 44.3904 20.2806C45.2768 19.3821 46.4814 18.8688 47.7434 18.8517C48.9556 18.8358 50.1251 19.299 50.9978 20.1405L52.2704 18.8678C51.675 18.2783 50.9679 17.8136 50.1905 17.501C49.4131 17.1884 48.5811 17.0341 47.7434 17.0473C46.8679 17.0345 45.9986 17.196 45.186 17.5222C44.3734 17.8484 43.6338 18.3329 43.0102 18.9476C42.3866 19.5622 41.8913 20.2946 41.5533 21.1024C41.2153 21.9101 41.0412 22.777 41.0412 23.6526C41.0412 24.5282 41.2153 25.395 41.5533 26.2027C41.8913 27.0105 42.3866 27.7429 43.0102 28.3576C43.6338 28.9722 44.3734 29.4567 45.186 29.7829C45.9986 30.1091 46.8679 30.2706 47.7434 30.2578C48.5988 30.2933 49.452 30.1465 50.2464 29.827C51.0408 29.5076 51.7582 29.0229 52.3509 28.4051C53.4033 27.2564 53.9643 25.7414 53.9137 24.1843C53.9179 23.8061 53.8854 23.4285 53.8169 23.0566H47.7434ZM93.0514 24.458C92.7958 23.6877 92.3093 23.0147 91.6579 22.5305C91.0065 22.0462 90.2218 21.7743 89.4105 21.7516C88.864 21.755 88.3239 21.8691 87.8228 22.0872C87.3217 22.3052 86.8701 22.6226 86.4951 23.0201C86.1201 23.4177 85.8297 23.8871 85.6413 24.4001C85.4529 24.9131 85.3705 25.4589 85.3991 26.0046C85.3868 26.5638 85.4873 27.1197 85.6946 27.6392C85.902 28.1587 86.2119 28.631 86.6059 29.028C86.9999 29.425 87.4698 29.7385 87.9877 29.9498C88.5056 30.1611 89.0607 30.2659 89.62 30.2578C90.3206 30.2617 91.0112 30.0915 91.6299 29.7625C92.2485 29.4335 92.7757 28.956 93.1641 28.3729L91.7143 27.4063C91.497 27.7671 91.1898 28.0651 90.8226 28.2713C90.4555 28.4775 90.041 28.5846 89.62 28.5823C89.1867 28.5989 88.7584 28.4849 88.3907 28.2551C88.0229 28.0253 87.7328 27.6903 87.5578 27.2935L93.2448 24.9414L93.0514 24.458ZM87.2518 25.8758C87.2317 25.5663 87.2737 25.2558 87.3751 24.9627C87.4765 24.6695 87.6353 24.3995 87.8423 24.1685C88.0493 23.9375 88.3003 23.7501 88.5807 23.6172C88.861 23.4844 89.165 23.4088 89.4749 23.3949C89.7976 23.3736 90.1193 23.4479 90.4001 23.6083C90.6809 23.7687 90.9082 24.0083 91.0538 24.297L87.2518 25.8758ZM82.628 30H84.4968V17.4985H82.628V30ZM79.567 22.7021H79.5026C79.2185 22.3934 78.8718 22.1489 78.4856 21.985C78.0994 21.8211 77.6826 21.7415 77.2632 21.7516C76.1665 21.7982 75.1303 22.2667 74.3708 23.0592C73.6113 23.8518 73.1873 24.907 73.1873 26.0047C73.1873 27.1024 73.6113 28.1576 74.3708 28.9501C75.1303 29.7426 76.1665 30.2111 77.2632 30.2578C77.6843 30.269 78.1028 30.1884 78.4895 30.0214C78.8762 29.8545 79.222 29.6053 79.5026 29.2912H79.567V29.9034C79.567 31.5306 78.6971 32.4005 77.2954 32.4005C76.8283 32.3893 76.3751 32.2393 75.9935 31.9696C75.6119 31.6999 75.3193 31.3227 75.1528 30.8861L73.5256 31.5628C73.8323 32.3095 74.355 32.9476 75.0266 33.3953C75.6982 33.8431 76.4882 34.0801 77.2954 34.076C79.4865 34.076 81.3392 32.7872 81.3392 29.6456V22.0093H79.567V22.7021ZM77.4244 28.5823C76.7785 28.5276 76.1767 28.2323 75.7381 27.7549C75.2995 27.2776 75.0561 26.6529 75.0561 26.0047C75.0561 25.3564 75.2995 24.7318 75.7381 24.2545C76.1767 23.7771 76.7785 23.4818 77.4244 23.4271C77.7458 23.4427 78.0607 23.523 78.3504 23.663C78.6401 23.803 78.8986 23.9998 79.1106 24.2419C79.3225 24.4839 79.4836 24.7662 79.5842 25.0718C79.6847 25.3774 79.7227 25.7001 79.6959 26.0207C79.721 26.3394 79.6816 26.6598 79.5801 26.9628C79.4785 27.2659 79.3169 27.5454 79.1048 27.7845C78.8928 28.0236 78.6346 28.2175 78.3459 28.3546C78.0572 28.4917 77.7438 28.5692 77.4244 28.5823ZM101.805 17.4987H97.3341V30H99.1998V25.2636H101.805C102.333 25.2926 102.861 25.2136 103.357 25.0316C103.854 24.8495 104.307 24.5682 104.691 24.2049C105.075 23.8415 105.381 23.4037 105.59 22.9182C105.799 22.4327 105.906 21.9097 105.906 21.3812C105.906 20.8526 105.799 20.3296 105.59 19.8441C105.381 19.3586 105.075 18.9208 104.691 18.5575C104.307 18.1941 103.854 17.9128 103.357 17.7308C102.861 17.5487 102.333 17.4697 101.805 17.4987ZM101.854 23.5239H99.1998V19.2386H101.854C102.139 19.2327 102.422 19.2837 102.687 19.3887C102.952 19.4938 103.194 19.6506 103.398 19.8502C103.601 20.0497 103.763 20.2879 103.874 20.5508C103.984 20.8137 104.041 21.096 104.041 21.3812C104.041 21.6664 103.984 21.9487 103.874 22.2116C103.763 22.4745 103.601 22.7127 103.398 22.9122C103.194 23.1118 102.952 23.2687 102.687 23.3737C102.422 23.4787 102.139 23.5298 101.854 23.5239ZM113.385 21.7286C112.704 21.6888 112.026 21.8487 111.435 22.1887C110.843 22.5287 110.364 23.0339 110.056 23.6425L111.712 24.334C111.877 24.032 112.125 23.7844 112.428 23.6216C112.731 23.4588 113.075 23.3878 113.417 23.4173C113.891 23.371 114.363 23.5144 114.731 23.8159C115.099 24.1173 115.332 24.5524 115.379 25.0255V25.1542C114.78 24.8359 114.112 24.6702 113.433 24.6717C111.648 24.6717 109.831 25.6528 109.831 27.4863C109.848 27.8727 109.943 28.2517 110.11 28.6008C110.276 28.9499 110.511 29.2619 110.801 29.5184C111.09 29.7749 111.428 29.9707 111.795 30.094C112.161 30.2174 112.549 30.2658 112.935 30.2365C113.405 30.2642 113.873 30.1654 114.292 29.9504C114.71 29.7354 115.064 29.4121 115.315 29.0142H115.379V29.9792H117.181V25.1864C117.181 22.967 115.524 21.7286 113.385 21.7286ZM113.16 28.5799C112.549 28.5799 111.696 28.2744 111.696 27.5184C111.696 26.5535 112.758 26.1835 113.675 26.1835C114.27 26.1677 114.859 26.3121 115.379 26.6017C115.311 27.144 115.048 27.6431 114.64 28.0067C114.232 28.3704 113.706 28.574 113.16 28.5799ZM123.743 22.002L121.604 27.4219H121.539L119.32 22.002H117.309L120.639 29.5771L118.741 33.7909H120.687L125.817 22.002H123.743ZM106.936 30H108.801V17.4987H106.936V30Z" fill="white"/>
<path d="M10.4352 7.53805C10.1073 7.93012 9.94173 8.43275 9.97241 8.94295V31.0589C9.94164 31.5691 10.1072 32.0718 10.4352 32.4638L10.5092 32.5359L22.8982 20.1471V19.8548L10.5092 7.46545L10.4352 7.53805Z" fill="url(#paint0_linear_1_9)"/>
<path d="M27.0276 24.2785L22.8982 20.1472V19.8549L27.0286 15.7245L27.1217 15.7776L32.0145 18.5577C33.4121 19.3517 33.4121 20.6509 32.0145 21.4454L27.1217 24.2254L27.0276 24.2785Z" fill="url(#paint1_linear_1_9)"/>
<path d="M27.1216 24.2249L22.8981 20.001L10.4352 32.4639C10.72 32.715 11.0836 32.8587 11.4632 32.8699C11.8427 32.8811 12.2142 32.7592 12.5133 32.5253L27.1216 24.2249Z" fill="url(#paint2_linear_1_9)"/>
<path d="M27.1216 15.777L12.5133 7.47666C12.2142 7.24275 11.8427 7.12084 11.4632 7.13206C11.0836 7.14327 10.72 7.2869 10.4352 7.53805L22.8981 20.001L27.1216 15.777Z" fill="url(#paint3_linear_1_9)"/>
<path opacity="0.2" d="M27.0285 24.1319L12.5133 32.3792C12.2257 32.5981 11.8747 32.7175 11.5133 32.7195C11.1519 32.7214 10.7996 32.6057 10.5097 32.3899L10.4352 32.4644L10.5092 32.5365L10.5097 32.536C10.7996 32.7519 11.1518 32.8677 11.5133 32.8657C11.8748 32.8638 12.2258 32.7443 12.5133 32.5253L27.1216 24.2249L27.0285 24.1319Z" fill="#1D1D1D"/>
<path opacity="0.12" d="M10.4352 32.3182C10.1073 31.9261 9.94176 31.4235 9.97241 30.9133V31.0594C9.94174 31.5696 10.1073 32.0722 10.4352 32.4643L10.5097 32.3898L10.4352 32.3182Z" fill="#1D1D1D"/>
<path opacity="0.12" d="M32.0145 21.2987L27.0286 24.1319L27.1217 24.2249L32.0145 21.4448C32.3023 21.3199 32.5513 21.1201 32.7357 20.8662C32.9201 20.6124 33.033 20.3137 33.0628 20.0014C33.0009 20.2842 32.8739 20.5488 32.692 20.774C32.51 20.9992 32.278 21.1788 32.0145 21.2987Z" fill="#1D1D1D"/>
<path opacity="0.25" d="M12.5134 7.62322L32.0145 18.7032C32.2781 18.823 32.5102 19.0027 32.6921 19.228C32.8741 19.4533 33.001 19.718 33.0628 20.001C33.0332 19.6885 32.9204 19.3897 32.736 19.1357C32.5516 18.8817 32.3024 18.6819 32.0145 18.5571L12.5134 7.47712C11.1158 6.68302 9.97247 7.34262 9.97247 8.94341V9.08951C9.97247 7.48882 11.1158 6.82922 12.5134 7.62322Z" fill="white"/>
</g>
<g clip-path="url(#clip2_1_9)">
<path d="M271.249 7.92969e-06H157.756C157.342 7.92969e-06 156.934 7.92975e-06 156.521 0.00200793C156.176 0.00400793 155.833 0.00981793 155.484 0.0147079C154.727 0.0226097 153.971 0.0816842 153.223 0.191418C152.477 0.303541 151.754 0.514924 151.079 0.818418C150.405 1.12448 149.789 1.52218 149.253 1.99708C148.714 2.47064 148.266 3.01802 147.924 3.61817C147.581 4.21712 147.343 4.85895 147.219 5.52149C147.093 6.18319 147.025 6.85253 147.016 7.52349C147.006 7.83009 147.005 8.13771 146.999 8.44435V31.5586C147.005 31.8691 147.006 32.1699 147.016 32.4805C147.025 33.1514 147.093 33.8207 147.219 34.4824C147.343 35.1453 147.58 35.7875 147.924 36.3867C148.265 36.9849 148.714 37.5301 149.253 38.001C149.786 38.478 150.403 38.876 151.079 39.1797C151.754 39.484 152.477 39.6967 153.223 39.8105C153.971 39.9194 154.727 39.9785 155.484 39.9873C155.833 39.9941 156.176 39.998 156.521 39.998C156.934 40 157.342 40 157.756 40H271.249C271.654 40 272.066 40 272.472 39.998C272.815 39.998 273.168 39.9941 273.512 39.9873C274.268 39.9789 275.022 39.9198 275.768 39.8105C276.517 39.6959 277.242 39.4833 277.921 39.1797C278.596 38.8758 279.212 38.4779 279.745 38.001C280.282 37.5282 280.732 36.9835 281.078 36.3867C281.419 35.7871 281.654 35.145 281.777 34.4824C281.903 33.8206 281.973 33.1515 281.986 32.4805C281.991 32.1699 281.991 31.8691 281.991 31.5586C281.999 31.1953 281.999 30.834 281.999 30.4648V9.53614C281.999 9.16993 281.999 8.80665 281.991 8.44435C281.991 8.13771 281.991 7.83009 281.986 7.52345C281.973 6.85243 281.903 6.18324 281.777 5.52145C281.654 4.85929 281.419 4.21751 281.078 3.61813C280.382 2.4152 279.278 1.43603 277.921 0.818328C277.242 0.515575 276.517 0.304248 275.768 0.191328C275.022 0.0811107 274.268 0.0220157 273.512 0.0145679C273.168 0.00968793 272.815 0.00382793 272.472 0.00187793C272.066 -0.00012207 271.654 -0.00012207 271.249 -0.00012207V7.92969e-06Z" fill="#1D1D1D"/>
<path d="M156.429 39.1281C156.085 39.1281 155.749 39.1241 155.407 39.1173C154.7 39.1092 153.994 39.0547 153.295 38.9542C152.644 38.8549 152.013 38.6702 151.423 38.4062C150.838 38.1444 150.305 37.801 149.844 37.3894C149.376 36.9826 148.986 36.5107 148.691 35.9926C148.392 35.4711 148.185 34.9121 148.077 34.3351C147.961 33.715 147.898 33.0881 147.889 32.4597C147.882 32.2487 147.872 31.5464 147.872 31.5464V8.44098C147.872 8.44098 147.882 7.74942 147.889 7.54625C147.898 6.9188 147.96 6.29284 148.076 5.67379C148.184 5.09519 148.391 4.53457 148.69 4.01134C148.985 3.49355 149.372 3.02137 149.837 2.6131C150.302 2.20096 150.837 1.85587 151.422 1.59042C152.011 1.32725 152.641 1.14385 153.291 1.04636C153.992 0.944908 154.7 0.890056 155.41 0.882269L156.43 0.870056H272.569L273.601 0.882759C274.305 0.89016 275.007 0.944522 275.701 1.04538C276.358 1.14409 276.994 1.32877 277.59 1.59335C278.763 2.12831 279.717 2.97466 280.319 4.01378C280.613 4.5334 280.817 5.08944 280.924 5.66305C281.041 6.28718 281.107 6.91806 281.12 7.55065C281.123 7.83391 281.123 8.13817 281.123 8.44098C281.132 8.81606 281.132 9.17306 281.132 9.533V30.466C281.132 30.8294 281.132 31.184 281.123 31.5415C281.123 31.8667 281.123 32.1647 281.119 32.4714C281.106 33.0927 281.041 33.7123 280.926 34.3252C280.82 34.9064 280.615 35.4698 280.316 35.9956C280.018 36.5081 279.63 36.9759 279.168 37.3816C278.706 37.7955 278.172 38.1408 277.586 38.4043C276.993 38.6704 276.357 38.8557 275.701 38.9542C275.003 39.0552 274.297 39.1097 273.589 39.1173C273.258 39.1241 272.911 39.1281 272.575 39.1281L271.35 39.1301L156.429 39.1281Z" fill="black"/>
<path d="M179.797 20.3008C179.807 19.4661 180.029 18.6477 180.441 17.9218C180.853 17.1958 181.442 16.5859 182.153 16.1487C181.701 15.5035 181.106 14.9726 180.413 14.598C179.72 14.2235 178.949 14.0156 178.162 13.991C176.483 13.8148 174.855 14.9958 173.999 14.9958C173.127 14.9958 171.809 14.0085 170.391 14.0377C169.473 14.0674 168.579 14.3342 167.795 14.8123C167.011 15.2903 166.364 15.9633 165.918 16.7656C163.984 20.114 165.426 25.035 167.279 27.7417C168.206 29.067 169.289 30.5475 170.707 30.495C172.094 30.4374 172.612 29.6105 174.286 29.6105C175.945 29.6105 176.431 30.495 177.877 30.4616C179.365 30.4374 180.303 29.1303 181.197 27.7924C181.863 26.8481 182.376 25.8044 182.716 24.6999C181.851 24.3342 181.113 23.722 180.594 22.9397C180.075 22.1574 179.798 21.2396 179.797 20.3008Z" fill="white"/>
<path d="M177.065 12.2109C177.877 11.2367 178.276 9.98451 178.18 8.72028C176.94 8.8505 175.794 9.44306 174.972 10.3799C174.57 10.8376 174.262 11.37 174.066 11.9468C173.869 12.5235 173.789 13.1333 173.828 13.7413C174.448 13.7477 175.062 13.6132 175.623 13.3482C176.183 13.0831 176.676 12.6942 177.065 12.2109Z" fill="white"/>
<path d="M197.33 27.1396H192.597L191.46 30.4961H189.455L193.938 18.0781H196.021L200.505 30.4961H198.466L197.33 27.1396ZM193.087 25.5908H196.839L194.989 20.1435H194.937L193.087 25.5908Z" fill="white"/>
<path d="M210.187 25.9698C210.187 28.7832 208.682 30.5908 206.409 30.5908C205.833 30.621 205.261 30.4884 204.757 30.2082C204.253 29.9281 203.839 29.5117 203.56 29.0068H203.517V33.4912H201.659V21.4424H203.458V22.9483H203.492C203.783 22.4458 204.205 22.0316 204.712 21.7498C205.22 21.4679 205.795 21.329 206.375 21.3477C208.673 21.3477 210.187 23.1641 210.187 25.9698ZM208.277 25.9698C208.277 24.1368 207.33 22.9317 205.885 22.9317C204.465 22.9317 203.51 24.1621 203.51 25.9698C203.51 27.794 204.465 29.0157 205.885 29.0157C207.33 29.0157 208.277 27.8194 208.277 25.9698Z" fill="white"/>
<path d="M220.152 25.9697C220.152 28.7832 218.646 30.5908 216.374 30.5908C215.798 30.621 215.226 30.4883 214.722 30.2082C214.218 29.9281 213.803 29.5117 213.525 29.0068H213.482V33.4912H211.624V21.4424H213.423V22.9483H213.457C213.748 22.4458 214.17 22.0316 214.677 21.7498C215.185 21.4679 215.759 21.329 216.34 21.3477C218.638 21.3477 220.152 23.1641 220.152 25.9697ZM218.242 25.9697C218.242 24.1367 217.295 22.9317 215.85 22.9317C214.43 22.9317 213.475 24.1621 213.475 25.9697C213.475 27.794 214.43 29.0157 215.85 29.0157C217.295 29.0157 218.242 27.8194 218.242 25.9697H218.242Z" fill="white"/>
<path d="M226.738 27.0361C226.876 28.2676 228.072 29.0761 229.707 29.0761C231.273 29.0761 232.4 28.2675 232.4 27.1572C232.4 26.1933 231.721 25.6162 230.111 25.2207L228.502 24.833C226.222 24.2822 225.163 23.2158 225.163 21.4853C225.163 19.3427 227.03 17.871 229.682 17.871C232.306 17.871 234.104 19.3427 234.165 21.4853H232.289C232.177 20.246 231.152 19.498 229.655 19.498C228.158 19.498 227.134 20.2548 227.134 21.3564C227.134 22.2343 227.788 22.7509 229.389 23.1464L230.757 23.4823C233.305 24.0849 234.363 25.1083 234.363 26.9247C234.363 29.248 232.513 30.703 229.569 30.703C226.815 30.703 224.956 29.2821 224.836 27.036L226.738 27.0361Z" fill="white"/>
<path d="M238.374 19.2998V21.4424H240.096V22.9141H238.374V27.9053C238.374 28.6807 238.719 29.042 239.476 29.042C239.68 29.0384 239.884 29.0241 240.087 28.999V30.4619C239.747 30.5255 239.401 30.5543 239.055 30.5478C237.222 30.5478 236.507 29.8593 236.507 28.1035V22.9141H235.19V21.4424H236.507V19.2998H238.374Z" fill="white"/>
<path d="M241.093 25.9697C241.093 23.1211 242.77 21.3311 245.387 21.3311C248.012 21.3311 249.682 23.1211 249.682 25.9697C249.682 28.8262 248.02 30.6084 245.387 30.6084C242.754 30.6084 241.093 28.8262 241.093 25.9697ZM247.788 25.9697C247.788 24.0156 246.893 22.8623 245.387 22.8623C243.881 22.8623 242.986 24.0244 242.986 25.9697C242.986 27.9316 243.881 29.0762 245.387 29.0762C246.893 29.0762 247.788 27.9316 247.788 25.9697H247.788Z" fill="white"/>
<path d="M251.214 21.4424H252.986V22.9834H253.029C253.149 22.5021 253.431 22.0768 253.828 21.7789C254.224 21.481 254.711 21.3287 255.207 21.3476C255.421 21.3469 255.635 21.3702 255.844 21.417V23.1553C255.573 23.0726 255.291 23.0347 255.009 23.043C254.739 23.032 254.47 23.0796 254.22 23.1825C253.97 23.2854 253.745 23.4411 253.561 23.639C253.377 23.8369 253.238 24.0723 253.154 24.3289C253.07 24.5856 253.042 24.8575 253.072 25.126V30.4961H251.214L251.214 21.4424Z" fill="white"/>
<path d="M264.412 27.8369C264.162 29.4805 262.561 30.6084 260.514 30.6084C257.88 30.6084 256.245 28.8437 256.245 26.0127C256.245 23.1729 257.889 21.3311 260.435 21.3311C262.94 21.3311 264.516 23.0518 264.516 25.7969V26.4336H258.121V26.5459C258.092 26.8791 258.133 27.2148 258.243 27.5306C258.354 27.8464 258.53 28.1352 258.76 28.3778C258.99 28.6203 259.27 28.8111 259.579 28.9374C259.889 29.0637 260.222 29.1226 260.557 29.1103C260.996 29.1515 261.436 29.0498 261.813 28.8203C262.19 28.5909 262.482 28.246 262.647 27.8369L264.412 27.8369ZM258.13 25.1348H262.656C262.673 24.8352 262.627 24.5354 262.523 24.2541C262.418 23.9729 262.256 23.7164 262.048 23.5006C261.839 23.2849 261.589 23.1145 261.311 23.0003C261.034 22.8861 260.735 22.8305 260.435 22.8369C260.133 22.8351 259.833 22.8933 259.553 23.008C259.273 23.1227 259.018 23.2918 258.804 23.5054C258.59 23.7191 258.42 23.973 258.304 24.2527C258.188 24.5323 258.129 24.8321 258.13 25.1348V25.1348Z" fill="white"/>
<path d="M192.854 8.73095C193.244 8.70299 193.635 8.76185 193.999 8.90329C194.363 9.04472 194.691 9.2652 194.959 9.54883C195.228 9.83245 195.43 10.1721 195.552 10.5434C195.673 10.9147 195.711 11.3083 195.662 11.6958C195.662 13.602 194.631 14.6978 192.854 14.6978H190.699V8.73095H192.854ZM191.625 13.854H192.75C193.029 13.8706 193.307 13.8249 193.566 13.7203C193.825 13.6157 194.056 13.4548 194.245 13.2492C194.433 13.0436 194.574 12.7986 194.656 12.532C194.737 12.2654 194.759 11.9839 194.718 11.708C194.756 11.4331 194.732 11.1533 194.649 10.8887C194.566 10.624 194.425 10.381 194.237 10.1771C194.049 9.97316 193.818 9.81335 193.561 9.70911C193.304 9.60488 193.027 9.55879 192.75 9.57416H191.625V13.854Z" fill="white"/>
<path d="M196.708 12.4443C196.68 12.1484 196.714 11.8498 196.808 11.5677C196.902 11.2857 197.053 11.0263 197.253 10.8063C197.453 10.5864 197.697 10.4106 197.969 10.2903C198.241 10.17 198.535 10.1079 198.832 10.1079C199.129 10.1079 199.423 10.17 199.695 10.2903C199.967 10.4106 200.211 10.5864 200.411 10.8063C200.61 11.0263 200.762 11.2857 200.856 11.5677C200.95 11.8498 200.984 12.1484 200.955 12.4443C200.984 12.7405 200.951 13.0395 200.857 13.322C200.764 13.6045 200.612 13.8644 200.412 14.0848C200.212 14.3052 199.968 14.4813 199.696 14.6019C199.424 14.7224 199.13 14.7847 198.832 14.7847C198.534 14.7847 198.24 14.7224 197.968 14.6019C197.696 14.4813 197.452 14.3052 197.252 14.0848C197.052 13.8644 196.9 13.6045 196.807 13.322C196.713 13.0395 196.68 12.7405 196.708 12.4443ZM200.041 12.4443C200.041 11.4682 199.603 10.8974 198.833 10.8974C198.061 10.8974 197.626 11.4682 197.626 12.4443C197.626 13.4282 198.061 13.9946 198.833 13.9946C199.603 13.9946 200.041 13.4243 200.041 12.4443H200.041Z" fill="white"/>
<path d="M206.601 14.6978H205.679L204.748 11.3813H204.678L203.751 14.6978H202.838L201.597 10.1948H202.498L203.305 13.6308H203.372L204.297 10.1948H205.15L206.076 13.6308H206.146L206.949 10.1948H207.837L206.601 14.6978Z" fill="white"/>
<path d="M208.881 10.1948H209.737V10.9101H209.803C209.916 10.6532 210.106 10.4378 210.347 10.294C210.588 10.1502 210.867 10.0852 211.147 10.1079C211.366 10.0914 211.586 10.1244 211.791 10.2045C211.995 10.2846 212.179 10.4097 212.329 10.5706C212.479 10.7314 212.59 10.9239 212.655 11.1337C212.721 11.3435 212.738 11.5653 212.705 11.7827V14.6977H211.817V12.0058C211.817 11.2822 211.502 10.9223 210.845 10.9223C210.696 10.9154 210.548 10.9407 210.41 10.9966C210.272 11.0524 210.147 11.1374 210.045 11.2458C209.943 11.3542 209.866 11.4834 209.818 11.6245C209.771 11.7656 209.754 11.9154 209.77 12.0635V14.6977H208.881L208.881 10.1948Z" fill="white"/>
<path d="M214.122 8.43701H215.01V14.6978H214.122V8.43701Z" fill="white"/>
<path d="M216.245 12.4444C216.217 12.1484 216.251 11.8499 216.345 11.5678C216.439 11.2857 216.591 11.0263 216.791 10.8064C216.99 10.5864 217.234 10.4106 217.506 10.2903C217.778 10.17 218.072 10.1079 218.369 10.1079C218.667 10.1079 218.961 10.17 219.232 10.2903C219.504 10.4106 219.748 10.5864 219.948 10.8064C220.148 11.0263 220.3 11.2857 220.394 11.5678C220.487 11.8499 220.521 12.1484 220.493 12.4444C220.522 12.7406 220.488 13.0396 220.395 13.3221C220.301 13.6046 220.149 13.8645 219.949 14.0849C219.749 14.3053 219.505 14.4814 219.233 14.6019C218.961 14.7225 218.667 14.7847 218.369 14.7847C218.072 14.7847 217.777 14.7225 217.505 14.6019C217.233 14.4814 216.989 14.3053 216.789 14.0849C216.589 13.8645 216.437 13.6046 216.344 13.3221C216.25 13.0396 216.217 12.7406 216.245 12.4444ZM219.578 12.4444C219.578 11.4683 219.14 10.8975 218.37 10.8975C217.598 10.8975 217.163 11.4683 217.163 12.4444C217.163 13.4283 217.598 13.9947 218.37 13.9947C219.14 13.9947 219.578 13.4244 219.578 12.4444H219.578Z" fill="white"/>
<path d="M221.429 13.4244C221.429 12.6138 222.032 12.1465 223.103 12.0801L224.323 12.0098V11.6212C224.323 11.1456 224.009 10.877 223.401 10.877C222.905 10.877 222.561 11.0591 222.463 11.3775H221.602C221.693 10.6041 222.421 10.108 223.442 10.108C224.571 10.108 225.208 10.67 225.208 11.6212V14.6978H224.352V14.065H224.282C224.139 14.292 223.939 14.477 223.701 14.6013C223.464 14.7255 223.197 14.7844 222.93 14.772C222.741 14.7917 222.55 14.7715 222.369 14.7128C222.188 14.6541 222.022 14.5582 221.88 14.4312C221.739 14.3042 221.625 14.149 221.548 13.9756C221.47 13.8022 221.429 13.6144 221.429 13.4244ZM224.323 13.0396V12.6631L223.224 12.7335C222.603 12.775 222.322 12.9859 222.322 13.3829C222.322 13.7881 222.674 14.024 223.157 14.024C223.299 14.0383 223.442 14.024 223.578 13.9819C223.714 13.9398 223.84 13.8708 223.949 13.779C224.058 13.6871 224.147 13.5743 224.211 13.4473C224.275 13.3203 224.314 13.1816 224.323 13.0396Z" fill="white"/>
<path d="M226.376 12.4444C226.376 11.0215 227.107 10.1201 228.245 10.1201C228.526 10.1072 228.806 10.1746 229.05 10.3145C229.295 10.4544 229.494 10.661 229.626 10.9101H229.692V8.43701H230.581V14.6978H229.729V13.9863H229.659C229.517 14.2338 229.311 14.4378 229.062 14.5763C228.812 14.7148 228.53 14.7825 228.245 14.772C227.1 14.772 226.376 13.8706 226.376 12.4444ZM227.294 12.4444C227.294 13.3994 227.744 13.9741 228.497 13.9741C229.246 13.9741 229.709 13.3911 229.709 12.4483C229.709 11.5098 229.241 10.9185 228.497 10.9185C227.749 10.9185 227.294 11.4971 227.294 12.4444H227.294Z" fill="white"/>
<path d="M234.258 12.4443C234.229 12.1484 234.263 11.8498 234.357 11.5677C234.451 11.2857 234.603 11.0263 234.803 10.8063C235.003 10.5864 235.246 10.4106 235.518 10.2903C235.79 10.17 236.084 10.1079 236.381 10.1079C236.678 10.1079 236.972 10.17 237.244 10.2903C237.516 10.4106 237.76 10.5864 237.96 10.8063C238.16 11.0263 238.312 11.2857 238.405 11.5677C238.499 11.8498 238.533 12.1484 238.505 12.4443C238.534 12.7405 238.5 13.0395 238.407 13.322C238.313 13.6045 238.161 13.8644 237.961 14.0848C237.761 14.3052 237.517 14.4813 237.245 14.6019C236.973 14.7224 236.679 14.7847 236.381 14.7847C236.084 14.7847 235.789 14.7224 235.517 14.6019C235.245 14.4813 235.001 14.3052 234.801 14.0848C234.601 13.8644 234.449 13.6045 234.356 13.322C234.262 13.0395 234.229 12.7405 234.258 12.4443ZM237.591 12.4443C237.591 11.4682 237.152 10.8974 236.383 10.8974C235.61 10.8974 235.176 11.4682 235.176 12.4443C235.176 13.4282 235.61 13.9946 236.383 13.9946C237.152 13.9946 237.591 13.4243 237.591 12.4443Z" fill="white"/>
<path d="M239.697 10.1948H240.553V10.9101H240.619C240.732 10.6532 240.922 10.4378 241.163 10.294C241.403 10.1502 241.683 10.0852 241.963 10.1079C242.182 10.0914 242.402 10.1244 242.607 10.2045C242.811 10.2846 242.995 10.4097 243.145 10.5706C243.294 10.7314 243.406 10.9239 243.471 11.1337C243.536 11.3435 243.554 11.5653 243.521 11.7827V14.6977H242.633V12.0058C242.633 11.2822 242.318 10.9223 241.661 10.9223C241.512 10.9154 241.364 10.9407 241.226 10.9966C241.088 11.0524 240.963 11.1374 240.861 11.2458C240.759 11.3542 240.682 11.4834 240.634 11.6245C240.587 11.7656 240.57 11.9154 240.586 12.0635V14.6977H239.697V10.1948Z" fill="white"/>
<path d="M248.543 9.07373V10.2153H249.518V10.9639H248.543V13.2793C248.543 13.751 248.737 13.9575 249.18 13.9575C249.293 13.9572 249.406 13.9503 249.518 13.937V14.6772C249.359 14.7058 249.197 14.721 249.035 14.7226C248.047 14.7226 247.653 14.375 247.653 13.5068V10.9638H246.938V10.2153H247.653V9.07373H248.543Z" fill="white"/>
<path d="M250.732 8.43701H251.613V10.9185H251.684C251.802 10.6591 251.997 10.4425 252.243 10.2982C252.488 10.1539 252.772 10.0888 253.057 10.1118C253.274 10.1 253.492 10.1364 253.695 10.2184C253.897 10.3004 254.079 10.4261 254.227 10.5864C254.375 10.7468 254.486 10.9378 254.552 11.146C254.617 11.3541 254.636 11.5742 254.607 11.7905V14.6978H253.718V12.0098C253.718 11.2905 253.383 10.9263 252.755 10.9263C252.602 10.9137 252.448 10.9347 252.305 10.9878C252.161 11.0408 252.03 11.1247 251.922 11.2334C251.814 11.3421 251.732 11.4732 251.679 11.6173C251.627 11.7614 251.607 11.9152 251.621 12.0679V14.6977H250.732L250.732 8.43701Z" fill="white"/>
<path d="M259.789 13.4819C259.668 13.8935 259.407 14.2495 259.05 14.4876C258.693 14.7258 258.264 14.8309 257.838 14.7847C257.541 14.7925 257.246 14.7357 256.974 14.6182C256.701 14.5006 256.458 14.3252 256.26 14.1041C256.062 13.8829 255.914 13.6214 255.828 13.3376C255.741 13.0537 255.717 12.7544 255.758 12.4605C255.718 12.1656 255.743 11.8656 255.829 11.581C255.916 11.2963 256.062 11.0335 256.259 10.8105C256.456 10.5874 256.698 10.4092 256.97 10.288C257.242 10.1668 257.536 10.1054 257.834 10.1079C259.087 10.1079 259.843 10.9639 259.843 12.3779V12.688H256.663V12.7378C256.649 12.9031 256.67 13.0694 256.724 13.2261C256.778 13.3829 256.864 13.5266 256.977 13.6481C257.09 13.7695 257.227 13.866 257.38 13.9314C257.532 13.9968 257.696 14.0297 257.862 14.0278C258.075 14.0533 258.29 14.0151 258.481 13.9178C258.672 13.8206 258.829 13.6689 258.934 13.4819L259.789 13.4819ZM256.663 12.0308H258.937C258.949 11.8796 258.928 11.7278 258.877 11.5851C258.826 11.4424 258.746 11.3119 258.642 11.2021C258.537 11.0922 258.411 11.0054 258.271 10.9472C258.131 10.8891 257.981 10.8608 257.829 10.8643C257.675 10.8623 257.523 10.8912 257.38 10.9491C257.238 11.0071 257.109 11.0929 257 11.2017C256.891 11.3104 256.806 11.4397 256.748 11.5821C256.69 11.7245 256.661 11.8771 256.663 12.0308H256.663Z" fill="white"/>
</g>
</g>
<defs>
<linearGradient id="paint0_linear_1_9" x1="21.7995" y1="8.70976" x2="5.01717" y2="25.4921" gradientUnits="userSpaceOnUse">
<stop stop-color="#00A0FF"/>
<stop offset="0.00657" stop-color="#00A1FF"/>
<stop offset="0.2601" stop-color="#00BEFF"/>
<stop offset="0.5122" stop-color="#00D2FF"/>
<stop offset="0.7604" stop-color="#00DFFF"/>
<stop offset="1" stop-color="#00E3FF"/>
</linearGradient>
<linearGradient id="paint1_linear_1_9" x1="33.8341" y1="20.0015" x2="9.63737" y2="20.0015" gradientUnits="userSpaceOnUse">
<stop stop-color="#FFE000"/>
<stop offset="0.4087" stop-color="#FFBD00"/>
<stop offset="0.7754" stop-color="#FFA500"/>
<stop offset="1" stop-color="#FF9C00"/>
</linearGradient>
<linearGradient id="paint2_linear_1_9" x1="24.8267" y1="22.2961" x2="2.06852" y2="45.0543" gradientUnits="userSpaceOnUse">
<stop stop-color="#FF3A44"/>
<stop offset="1" stop-color="#C31162"/>
</linearGradient>
<linearGradient id="paint3_linear_1_9" x1="7.29716" y1="0.176272" x2="17.4596" y2="10.3387" gradientUnits="userSpaceOnUse">
<stop stop-color="#32A071"/>
<stop offset="0.0685" stop-color="#2DA771"/>
<stop offset="0.4762" stop-color="#15CF74"/>
<stop offset="0.8009" stop-color="#06E775"/>
<stop offset="1" stop-color="#00F076"/>
</linearGradient>
<clipPath id="clip0_1_9">
<rect width="281.999" height="40" fill="white"/>
</clipPath>
<clipPath id="clip1_1_9">
<rect width="134.999" height="40" fill="white"/>
</clipPath>
<clipPath id="clip2_1_9">
<rect width="135" height="40" fill="white" transform="translate(146.999)"/>
</clipPath>
</defs>
</svg>
